<svg width="24" height="22" viewBox="0 0 24 22" fill="none" xmlns="http://www.w3.org/2000/svg">
<g id="Group">
<path id="Vector" d="M19.554 0.0508285H19.6056V0H19.554V0.0508285ZM4.16345 0.0508285V0H4.11187V0.0508285H4.16345ZM19.554 3.11175H19.5024V3.16258H19.554V3.11175ZM23.9305 3.11175L23.9806 3.1267L24 3.06092H23.9305V3.11175ZM23.0133 6.17341V6.22424H23.0515L23.0627 6.18762L23.0133 6.17341ZM22.2367 6.17341V6.12259H22.1851V6.17341H22.2367ZM22.2367 18.5591H22.1851V18.6099H22.2367V18.5591ZM22.9423 20.0892H22.8907V20.14H22.9423V20.0892ZM23.79 21.62V21.6709H23.8408V21.62H23.79ZM15.8824 21.62H15.8308V21.6709H15.8824V21.62ZM16.73 20.0892V20.14H16.7816V20.0892H16.73ZM17.2877 18.5741L17.2989 18.6234L17.3392 18.6152V18.5741H17.2877ZM17.2727 11.7399H17.3243V11.7376L17.3235 11.7354L17.2727 11.7399ZM6.44475 11.7399L6.39317 11.7354V11.7376V11.7399H6.44475ZM6.4298 18.5681H6.37822L6.37748 18.6122L6.42158 18.6189L6.4298 18.5681ZM7.26996 20.0892H7.21839V20.14H7.26996V20.0892ZM8.11686 21.62V21.6709H8.16843V21.62H8.11686ZM0.210041 21.62H0.158465V21.6709H0.210041V21.62ZM1.05693 20.0892V20.14H1.10851V20.0892H1.05693ZM1.7633 18.5591V18.6099H1.81487V18.5591H1.7633ZM1.7633 6.17341H1.81487V6.12259H1.7633V6.17341ZM0.98667 6.17341L0.937337 6.18762L0.947801 6.22424H0.98667V6.17341ZM0.0687679 3.11175V3.06167H0L0.0194344 3.1267L0.0687679 3.11175ZM4.16345 3.11175V3.16258H4.21502V3.11175H4.16345ZM19.554 0H4.16345V0.100909H19.554V0ZM19.6056 3.11175V0.0508285H19.5024V3.11175H19.6056ZM23.9305 3.06092H19.554V3.16258H23.9305V3.06092ZM23.0627 6.18762L23.9806 3.1267L23.8812 3.09755L22.9633 6.15921L23.0627 6.18762ZM22.2367 6.22424H23.0133V6.12259H22.2367V6.22424ZM22.2883 18.5591V6.17341H22.1851V18.5591H22.2883ZM22.9939 19.2543C22.9939 18.8424 22.6545 18.5083 22.2367 18.5083V18.6099C22.5977 18.6099 22.8907 18.8985 22.8907 19.2543H22.9939ZM22.9939 20.0892V19.2543H22.8907V20.0892H22.9939ZM23.0836 20.0391H22.9423V20.14H23.0836V20.0391ZM23.8408 20.7851C23.8408 20.3732 23.5022 20.0391 23.0836 20.0391V20.14C23.4454 20.14 23.7384 20.4293 23.7384 20.7851H23.8408ZM23.8408 21.62V20.7851H23.7384V21.62H23.8408ZM19.554 21.6709H23.79V21.5692H19.554V21.6709ZM17.2944 21.6709H19.554V21.5692H17.2944V21.6709ZM15.8824 21.6709H17.2944V21.5692H15.8824V21.6709ZM15.8308 20.7851V21.62H15.934V20.7851H15.8308ZM16.5888 20.0391C16.1702 20.0391 15.8308 20.3732 15.8308 20.7851H15.934C15.934 20.4293 16.227 20.14 16.5888 20.14V20.0391ZM16.73 20.0391H16.5888V20.14H16.73V20.0391ZM16.6785 19.2543V20.0892H16.7816V19.2543H16.6785ZM17.2772 18.5247C16.9348 18.5965 16.6785 18.8962 16.6785 19.2543H16.7816C16.7816 18.9448 17.0029 18.6862 17.2989 18.6234L17.2772 18.5247ZM17.2211 11.7399L17.2361 18.5741H17.3392L17.3243 11.7399H17.2211ZM11.8587 6.92015C14.667 6.92015 16.9737 9.03999 17.2211 11.7444L17.3235 11.7354C17.0716 8.9787 14.7216 6.81849 11.8587 6.81849V6.92015ZM6.49633 11.7444C6.74374 9.03999 9.04971 6.92015 11.8587 6.92015V6.81849C8.99589 6.81849 6.64582 8.9787 6.39317 11.7354L6.49633 11.7444ZM6.48138 18.5681L6.49633 11.7399H6.39317L6.37822 18.5681H6.48138ZM7.32154 19.2543C7.32154 19.0592 7.19073 18.888 7.0218 18.7624C6.85212 18.6354 6.63386 18.5472 6.43727 18.518L6.42158 18.6189C6.60172 18.6458 6.80354 18.7265 6.95976 18.8432C7.11748 18.9605 7.21839 19.1048 7.21839 19.2543H7.32154ZM7.32154 20.0892V19.2543H7.21839V20.0892H7.32154ZM7.41124 20.0391H7.26996V20.14H7.41124V20.0391ZM8.16843 20.7851C8.16843 20.3732 7.82908 20.0391 7.41124 20.0391V20.14C7.77227 20.14 8.06528 20.4293 8.06528 20.7851H8.16843ZM8.16843 21.62V20.7851H8.06528V21.62H8.16843ZM6.42233 21.6709H8.11686V21.5692H6.42233V21.6709ZM6.30497 21.6709H6.42233V21.5692H6.30497V21.6709ZM4.16345 21.6709H6.30497V21.5692H4.16345V21.6709ZM0.210041 21.6709H4.16345V21.5692H0.210041V21.6709ZM0.158465 20.7851V21.62H0.261617V20.7851H0.158465ZM0.91566 20.0391C0.49782 20.0391 0.158465 20.3732 0.158465 20.7851H0.261617C0.261617 20.4293 0.554628 20.14 0.91566 20.14V20.0391ZM1.05693 20.0391H0.91566V20.14H1.05693V20.0391ZM1.00536 19.2543V20.0892H1.10851V19.2543H1.00536ZM1.7633 18.5083C1.34471 18.5083 1.00536 18.8424 1.00536 19.2543H1.10851C1.10851 18.8985 1.40152 18.6099 1.7633 18.6099V18.5083ZM1.71172 6.17341V18.5591H1.81487V6.17341H1.71172ZM0.98667 6.22424H1.7633V6.12259H0.98667V6.22424ZM0.0194344 3.1267L0.937337 6.18762L1.036 6.15921L0.118101 3.09755L0.0194344 3.1267ZM4.16345 3.06092L0.0687679 3.06167V3.16258H4.16345V3.06092ZM4.11187 0.0508285V3.11175H4.21502V0.0508285H4.11187Z" fill="white"/>
<path id="Vector_2" d="M4.16304 0.050827H19.5536V3.11175H23.9301L23.0129 6.17341H22.2363V18.5591C22.6257 18.5591 22.9419 18.8701 22.9419 19.2543V20.0892H23.0832C23.4734 20.0892 23.7896 20.4009 23.7896 20.7851V21.62H15.882V20.7851C15.882 20.4009 16.1982 20.0892 16.5884 20.0892H16.7296V19.2543C16.7296 18.9201 16.9688 18.6413 17.2872 18.5741L17.2723 11.7399C17.0226 9.00934 14.6942 6.86932 11.8583 6.86932C9.02239 6.86932 6.694 9.00934 6.44434 11.7399L6.42939 18.5681C6.80612 18.6234 7.26956 18.9097 7.26956 19.2543V20.0892H7.41083C7.80027 20.0892 8.11645 20.4009 8.11645 20.7851V21.62H0.209633V20.7851C0.209633 20.4009 0.525815 20.0892 0.915251 20.0892H1.05652V19.2543C1.05652 18.8701 1.37271 18.5591 1.76289 18.5591V6.17341H0.986261L0.0683594 3.11175H4.16304V0.050827Z" fill="#718096"/>
</g>
</svg>
