<svg width="24" height="24" viewBox="0 0 24 24" fill="none" xmlns="http://www.w3.org/2000/svg">
<path fill-rule="evenodd" clip-rule="evenodd" d="M16.5219 8.9491C17.5057 8.13915 18.6032 7.83098 19.6558 7.9089C20.7786 7.99199 21.8175 8.51137 22.5936 9.26576C23.3695 10.0202 23.9026 11.0293 23.988 12.1183C24.0741 13.2173 23.7012 14.3683 22.7181 15.3785C22.6283 15.4715 22.5364 15.5633 22.4425 15.654C17.9836 19.9885 12.0606 20 12 20H11.9997C11.9694 20 6.02769 19.9998 1.55722 15.6535L1.55626 15.6524C1.46396 15.5622 1.37307 15.4713 1.28355 15.38L1.28283 15.3791C0.299307 14.3699 -0.0739189 13.2191 0.0119163 12.1201C0.096969 11.0313 0.629706 10.0221 1.40546 9.26737C2.18115 8.51271 3.22007 7.99292 4.34306 7.90947C5.39557 7.83125 6.49332 8.13904 7.47756 8.9486C7.5834 7.69996 8.13478 6.72815 8.93517 6.06006C9.78881 5.34749 10.9012 5 11.9998 5C13.0983 5 14.2107 5.34749 15.0643 6.06006C15.8647 6.72824 16.4162 7.70022 16.5219 8.9491ZM12.2039 19.5606L12.2037 19.5551H12.204L12.2039 19.5606ZM11.7957 19.5606L11.7955 19.5551H11.7959L11.7957 19.5606ZM15.3497 13.5417C15.2277 13.5417 15.1854 13.713 15.2632 13.8037C15.4009 13.9644 15.4839 14.1712 15.4839 14.3968C15.4839 14.9086 15.0571 15.3235 14.5307 15.3235C14.0042 15.3235 13.5774 14.9086 13.5774 14.3968C13.5774 14.3694 13.5407 14.3558 13.524 14.378C13.3737 14.5787 13.2722 14.8041 13.2305 15.0407C13.207 15.174 13.0956 15.2845 12.9556 15.2845H12.8783C12.6956 15.2845 12.5449 15.1404 12.5718 14.9659C12.7567 13.7701 13.9689 12.9028 15.3497 12.9028C16.7305 12.9028 17.9427 13.7701 18.1275 14.9659C18.1544 15.1404 18.0037 15.2845 17.8211 15.2845C17.6382 15.2845 17.4936 15.1396 17.4538 14.9674C17.2732 14.1836 16.4354 13.5417 15.3497 13.5417ZM6.88465 14.3968C6.88465 14.3606 6.8365 14.3413 6.81384 14.37C6.65312 14.5739 6.54361 14.8048 6.49725 15.0481C6.46989 15.1918 6.34961 15.3114 6.19824 15.3114H6.14151C5.95879 15.3114 5.80807 15.1674 5.835 14.9929C6.01977 13.7964 7.23213 12.9298 8.61287 12.9298C9.99358 12.9298 11.2059 13.7964 11.3907 14.9929C11.4177 15.1674 11.2669 15.3114 11.0842 15.3114C10.9015 15.3114 10.7568 15.1667 10.7171 14.9944C10.5365 14.2101 9.69875 13.5687 8.61287 13.5687C8.51416 13.5687 8.47803 13.7034 8.54411 13.7742C8.69763 13.9387 8.79118 14.1571 8.79118 14.3968C8.79118 14.9086 8.36439 15.3235 7.83791 15.3235C7.31144 15.3235 6.88465 14.9086 6.88465 14.3968ZM13.0602 16.6318C13.1894 16.507 13.3889 16.4463 13.5493 16.5308C13.7096 16.6155 13.7704 16.8118 13.6549 16.9486C13.2785 17.3935 12.6692 17.6757 11.9972 17.6757C11.3255 17.6757 10.7149 17.3966 10.3381 16.9482C10.2229 16.8112 10.2845 16.6149 10.4452 16.5308C10.6058 16.4468 10.8051 16.5083 10.934 16.6332C11.1824 16.874 11.5593 17.0368 11.9972 17.0368C12.4339 17.0368 12.8113 16.8723 13.0602 16.6318Z" fill="black"/>
</svg>
